<svg id="Laag_1" data-name="Laag 1" xmlns="http://www.w3.org/2000/svg" xmlns:xlink="http://www.w3.org/1999/xlink" viewBox="0 0 250 250"><defs><style>.cls-1{fill:none;}.cls-2{fill:#e73331;}.cls-3{clip-path:url(#clip-path);}.cls-4{fill:#fff;}</style><clipPath id="clip-path" transform="translate(-0.31)"><rect class="cls-1" x="0.31" width="250" height="250"/></clipPath></defs><title>logo-min</title><rect class="cls-2" width="250" height="250"/><g class="cls-3"><path class="cls-4" d="M133.94,62.36c0-5.09-.46-5.92-4.26-7.35l-3.08-1.3V50.86l18-5.8h3.79V84.63a31.32,31.32,0,0,1,5.68-4.51c5.57-3.78,9.71-5.45,14.1-5.45,10.65,0,19.06,10.07,19.06,22.74,0,16.12-12.79,28.19-29.85,28.19-5.68,0-16.34-1.77-23.45-3.79Z" transform="translate(-0.31)"/><path class="cls-4" d="M173.73,163.28c4.42,2.54,5.37,2.55,8.5,0l2.67-2,2.45,1.42-4,18.5-1.9,3.28-34.26-19.79a32,32,0,0,1,1.06,7.18c.5,6.72-.14,11.14-2.33,14.94-5.33,9.23-18.26,11.48-29.23,5.14-14-8.06-18-25.17-9.49-39.95,2.85-4.92,9.71-13.27,15-18.41Z" transform="translate(-0.31)"/><path class="cls-4" d="M66.44,147.28c-4.41,2.54-4.89,3.37-4.23,7.36l.41,3.31-2.46,1.43-14-12.69-1.89-3.28L78.5,123.63A31.31,31.31,0,0,1,71.76,121c-6.07-2.92-9.57-5.68-11.77-9.47-5.33-9.24-.82-21.56,10.16-27.89,13.95-8.06,30.81-3,39.34,11.75,2.84,4.92,6.63,15,8.44,22.2Z" transform="translate(-0.31)"/></g></svg>