<svg id="Laag_1" data-name="Laag 1" xmlns="http://www.w3.org/2000/svg" viewBox="0 0 258.21 176.03"><defs><style>.cls-1{fill:#e73331;}.cls-2{fill:#fff;}</style></defs><title>logo</title><rect class="cls-1" width="258.21" height="176.03"/><rect class="cls-2" x="112.71" y="39.37" width="42.78" height="42.78"/><path class="cls-1" d="M135.58,50c0-.87-.08-1-.73-1.26l-.53-.22v-.49l3.09-1h.64v6.77a6.07,6.07,0,0,1,1-.77,4.2,4.2,0,0,1,2.41-.93c1.82,0,3.26,1.72,3.26,3.89a4.85,4.85,0,0,1-5.11,4.82,18.55,18.55,0,0,1-4-.64Z"/><path class="cls-1" d="M142.39,67.31c.76.44.92.44,1.45,0l.46-.35.42.25L144,70.37l-.32.56-5.87-3.38a5.21,5.21,0,0,1,.18,1.23,4.22,4.22,0,0,1-.39,2.55c-.92,1.58-3.13,2-5,.88A4.85,4.85,0,0,1,131,65.38a18,18,0,0,1,2.57-3.16Z"/><path class="cls-1" d="M124,64.57c-.76.44-.84.58-.72,1.26l.07.57-.43.25-2.4-2.18-.32-.56,5.86-3.38a6,6,0,0,1-1.15-.46,4.18,4.18,0,0,1-2-1.62c-.92-1.58-.14-3.69,1.73-4.78a4.87,4.87,0,0,1,6.74,2,18.52,18.52,0,0,1,1.44,3.8Z"/><path class="cls-2" d="M61.41,114.72h-9v-1.33l2.85-.82v-17l-2.85-.86V93.39h8.48c3.81,0,6.59,2,6.59,5.37a4.73,4.73,0,0,1-3,4.74c1.37.41,4.11,1.93,4.11,5C68.6,112.94,65.3,114.72,61.41,114.72Zm-.92-19.29H58.6v7.22h2.07c2.19,0,3.37-1.52,3.37-3.78A3.43,3.43,0,0,0,60.49,95.43ZM61,104.8H58.6v7.88h2.63a3.76,3.76,0,0,0,3.89-4.11C65.12,106.05,62.6,104.8,61,104.8Z"/><path class="cls-2" d="M86.63,114.72l-5.07-9.29H79.63v7.14l2.67.82v1.33H73.41v-1.33l2.85-.82v-17l-2.89-.86V93.39h8c4.66,0,7,2.67,7,5.89a6.24,6.24,0,0,1-3.85,5.52l4.78,7.74,2.7.85v1.33ZM81.34,95.46H79.63v7.85h1.71c2.14,0,3.59-1.59,3.59-3.92C84.93,97.35,83.78,95.46,81.34,95.46Z"/><path class="cls-2" d="M106,114.72v-1.3l2.48-.81-1.67-4.93h-6.62l-1.56,4.93,2.48.81v1.3h-7.7v-1.3l2.41-.85,6.81-19.18h2.85l6.41,19.18,2.55.85v1.3Zm-2.3-17.26-2.81,8.11h5.22Z"/><path class="cls-2" d="M135.74,95.54v19.18h-2.85l-9.78-15.85v13.7l2.59.82v1.33h-8.18v-1.33l2.85-.82v-17l-2.85-.86V93.39h6.18l9.3,14.85V95.54l-2.59-.89V93.39h8.22v1.29Z"/><path class="cls-2" d="M151.81,114.72h-8.92v-1.33l2.85-.82v-17l-2.85-.86V93.39H152c6.37,0,9,4.78,9,10.48C160.92,110.46,157,114.72,151.81,114.72Zm-.11-19.29h-2.56v17.22h2.34c3.74,0,5.7-2.78,5.7-8.85C157.18,100.06,155.81,95.43,151.7,95.43Z"/><path class="cls-2" d="M176.1,114.72v-1.3l2.49-.81-1.67-4.93h-6.63l-1.55,4.93,2.48.81v1.3h-7.71v-1.3l2.41-.85,6.81-19.18h2.86l6.4,19.18,2.56.85v1.3Zm-2.29-17.26L171,105.57h5.23Z"/><path class="cls-2" d="M197.62,114.72v-1.3l2.26-.81-3.48-6.18-4,6.18,2.34.78v1.33h-8.41v-1.3l2.63-.88,5.89-8.6-5.34-8.37-2.63-.89V93.39h8.74v1.29l-2.22.82,3.41,5.89,4-5.93-2.22-.78V93.39h7.89v1.29l-2.37.89-5.74,8,5.48,8.93,2.78.85v1.33Z"/><path class="cls-2" d="M99.87,127.75l-.36-5.6-2.23,5.55H96.09L94,122.15l-.46,5.6-1.21,0,.7-6.92h1.72l2.06,5.43,2.07-5.43h1.66l.67,6.92Z"/><path class="cls-2" d="M108.94,127.86l-.7-1.83h-3.1l-.77,1.83-1.19-.23,3-6.85h1.22l2.77,6.81Zm-2.21-5.73L105.56,125h2.29Z"/><path class="cls-2" d="M112.6,127.7v-6.9h1.29v6.9Zm4.41.21L114.12,124v-.33l2.92-3.13,1.26.43-2.8,2.84,2.84,3.61Z"/><path class="cls-2" d="M121.07,127.7v-6.92h4.69v1h-3.4v1.78h2.93v1h-2.93v2.08h3.84v1Z"/><path class="cls-2" d="M129.1,127.7v-6.92h1.3v5.9h3.45v1Z"/><path class="cls-2" d="M140.59,127.86l-.7-1.83h-3.1l-.77,1.83-1.19-.23,3-6.85h1.23l2.76,6.81Zm-2.21-5.73L137.21,125h2.29Z"/><path class="cls-2" d="M148.78,127.86l-.7-1.83H145l-.77,1.83-1.19-.23,3-6.85h1.23l2.77,6.81Zm-2.21-5.73L145.4,125h2.29Z"/><path class="cls-2" d="M156.92,128l-2.09-2.86a1,1,0,0,1-.24,0h-.86v2.56h-1.29v-6.92h2.43c1.66,0,2.52.88,2.52,2.14a1.93,1.93,0,0,1-1.33,2l2,2.57Zm-2-6.22h-1.14v2.38h1.14c1,0,1.19-.47,1.19-1.15S155.81,121.76,154.87,121.76Z"/><path class="cls-2" d="M163.85,127.7h-3.08v-6.92h2.78c2.68,0,3.73,1.46,3.73,3.36S166.37,127.7,163.85,127.7Zm-.4-5.87h-1.39v4.85h1.54c1.75,0,2.26-1.17,2.26-2.57S165.34,121.83,163.45,121.83Z"/><path class="cls-2" d="M170,127.7v-6.92h1.29v6.92Z"/><path class="cls-2" d="M173.37,130.62a2.55,2.55,0,0,1-1.1-.21l.3-1.07a2.39,2.39,0,0,0,.77.14,1.42,1.42,0,0,0,1.59-1.48v-7.22h1.28v7.3A2.63,2.63,0,0,1,173.37,130.62Z"/></svg>